<?xml version="1.0" encoding="utf-8"?>
<!-- Uploaded to: SVG Repo, www.svgrepo.com, Generator: SVG Repo Mixer Tools -->
<svg width="800px" height="800px" viewBox="-2 0 20 20" xmlns="http://www.w3.org/2000/svg">
  <g id="medical-record" transform="translate(-4 -2)">
    <path id="secondary" fill="#2ca9bc" d="M18,3H15V6a1,1,0,0,1-1,1H10A1,1,0,0,1,9,6V3H6A1,1,0,0,0,5,4V20a1,1,0,0,0,1,1H18a1,1,0,0,0,1-1V4A1,1,0,0,0,18,3Z"/>
    <path id="primary" d="M18,21H6a1,1,0,0,1-1-1V4A1,1,0,0,1,6,3H18a1,1,0,0,1,1,1V20A1,1,0,0,1,18,21ZM9,3h6V6a1,1,0,0,1-1,1H10A1,1,0,0,1,9,6Zm3,13V12m2,2H10" fill="none" stroke="#000000" stroke-linecap="round" stroke-linejoin="round" stroke-width="2"/>
  </g>
</svg>